<?xml version="1.0" standalone="no"?><!DOCTYPE svg PUBLIC "-//W3C//DTD SVG 1.1//EN" "http://www.w3.org/Graphics/SVG/1.1/DTD/svg11.dtd"><svg t="1764074535470" class="icon" viewBox="0 0 1024 1024" version="1.1" xmlns="http://www.w3.org/2000/svg" p-id="5064" xmlns:xlink="http://www.w3.org/1999/xlink" width="200" height="200"><path d="M889.344 25.088c-6.144-10.752-22.528-6.144-22.528 6.144v0.512c0 158.72-91.136 296.448-224.256 363.008v231.936c174.08-44.544 302.592-200.704 304.128-389.12 1.024-77.824-19.968-150.528-57.344-212.48z" fill="#A66EDD" p-id="5065"></path><path d="M43.52 536.576c0 258.56 209.92 468.48 468.48 468.48s468.48-209.92 468.48-468.48-209.92-468.48-468.48-468.48S43.52 277.504 43.52 536.576z" fill="#A66EDD" p-id="5066"></path><path d="M612.352 935.936c-258.56 0-468.48-209.92-468.48-468.48 0-138.24 59.904-262.656 155.136-348.16-151.552 77.312-255.488 235.52-255.488 417.28 0 258.56 209.92 468.48 468.48 468.48 120.32 0 230.4-45.568 313.344-120.32-64 32.768-136.192 51.2-212.992 51.2z" fill="#7D45B2" p-id="5067"></path><path d="M459.264 526.336c0 28.672 23.04 52.224 52.224 52.224 28.672 0 52.224-23.04 52.224-52.224 0-28.672-23.04-52.224-51.712-52.224-29.696 0-52.736 23.04-52.736 52.224zM737.28 512c0 28.672 23.04 52.224 51.712 52.224s52.224-23.04 52.224-51.712-23.04-52.224-51.712-52.224c-29.184-0.512-52.224 23.04-52.224 51.712z" fill="#FC4C59" p-id="5068"></path><path d="M644.608 822.272c-50.176 0-98.816-21.504-137.728-61.44-7.168-7.68-7.168-19.456 0.512-27.136 7.68-7.168 19.456-7.168 27.136 0.512 33.28 34.304 75.264 51.712 117.76 49.664 41.984-2.048 81.92-24.576 112.64-63.488 6.656-8.192 18.432-9.728 26.624-3.072 8.192 6.656 9.728 18.432 3.072 26.624-37.888 47.616-87.552 75.264-140.8 77.824-2.56 0.512-6.144 0.512-9.216 0.512z m-132.608-225.28c-28.16 0-54.784-15.872-67.072-43.008-9.216-19.968-8.704-44.032 1.024-65.024 4.096-8.704 9.728-16.384 16.384-23.04-3.072-1.536-5.632-3.072-8.704-4.608-13.312-6.144-23.552-12.288-33.792-18.432-11.776-7.168-24.576-14.336-41.984-23.04-9.216-4.608-13.312-16.384-8.192-25.6 4.608-9.216 16.384-13.312 25.6-8.192 18.432 9.216 31.744 16.896 44.032 24.576 10.24 6.144 19.456 11.776 31.744 17.92 8.192 4.096 15.872 8.192 23.552 12.288 32.256 16.384 60.416 30.72 78.848 46.08 2.048 2.048 4.096 4.096 5.12 6.656 16.896 36.864 0.512 80.384-36.352 97.28-9.216 4.096-19.456 6.144-30.208 6.144z m-10.24-110.08c-0.512 0-1.024 0.512-1.024 0.512-11.264 3.072-16.896 11.776-19.968 17.92-4.608 10.752-5.12 23.552-1.024 33.28 8.192 17.92 29.184 25.6 47.104 17.408 8.704-4.096 15.36-11.264 18.432-19.968 2.56-7.68 3.072-15.36 0.512-23.04-11.264-8.192-26.112-16.896-44.032-26.112z m289.792 97.28c-10.752 0-20.992-2.048-30.72-6.656-17.92-8.192-31.744-23.04-38.4-41.472-6.656-18.432-6.144-38.4 2.048-56.32 1.536-3.072 3.584-5.632 6.144-7.168 19.968-14.848 46.592-30.208 78.848-45.568 48.128-23.552 51.2-25.088 90.624-48.128l6.144-3.584c9.216-5.12 20.992-2.048 26.112 6.656 5.12 9.216 2.048 20.992-6.656 26.112l-6.144 3.584c-34.304 19.968-41.984 24.576-75.776 40.96 7.68 7.68 13.312 16.384 16.896 26.112 7.68 19.968 7.168 42.496-2.048 61.952-8.192 17.92-23.04 31.232-41.472 38.4-7.68 3.584-16.384 5.12-25.6 5.12zM757.76 500.224c-2.56 7.68-2.048 15.36 0.512 23.04 3.072 8.704 9.728 15.872 18.432 19.968 8.704 4.096 18.432 4.096 27.136 1.024 8.704-3.072 15.872-9.728 19.968-18.432 4.608-10.24 5.12-22.016 1.024-32.768-2.56-6.656-8.192-15.36-19.968-20.992-17.92 9.216-33.792 18.944-47.104 28.16z" fill="#3A2568" p-id="5069"></path><path d="M270.336 278.016C210.432 215.04 174.08 130.56 174.08 36.864c0-10.752-13.824-14.336-19.456-5.632-32.256 53.248-50.176 115.712-49.664 182.784 0.512 56.32 14.336 109.056 37.888 155.648 0 0 7.168 15.36 15.872 26.112l111.616-117.76z" fill="#A66EDD" p-id="5070"></path><path d="M954.88 332.288c7.168-30.72 11.264-62.464 11.264-94.208 0.512-78.848-19.968-155.648-60.416-222.72-7.168-12.288-21.504-17.92-34.816-13.824-13.824 3.584-23.04 15.872-23.04 30.208v0.512c0 45.056-7.68 89.088-23.04 131.072-84.48-71.68-193.536-114.176-312.832-114.176-108.544 0-213.504 36.352-298.496 102.4-13.312-36.352-20.48-74.752-20.48-114.176v-0.512c0-13.312-8.704-25.088-21.504-28.672-12.8-3.584-26.112 1.536-33.28 13.312-34.816 57.856-52.736 124.928-52.224 193.024 0.512 57.856 13.824 113.152 39.936 163.84 3.072 6.144 9.728 10.24 16.896 10.24 3.072 0 6.144-0.512 8.704-2.048 9.216-4.608 13.312-16.384 8.192-25.6-23.04-45.568-35.328-95.232-35.84-146.944-0.512-50.688 10.752-100.352 32.256-145.408 7.168 83.456 41.984 161.28 100.352 222.208 7.168 7.68 19.456 7.68 27.136 0.512s7.68-19.456 0.512-27.136c-22.016-23.552-40.448-49.664-54.784-77.312C308.736 122.368 409.088 87.04 512 87.04c247.808 0 449.536 201.728 449.536 449.536s-201.728 449.536-449.536 449.536-449.536-201.728-449.536-449.536c0-30.208 3.072-60.416 8.704-89.6 2.048-10.24-4.608-20.48-14.848-22.528-10.24-2.048-20.48 4.608-22.528 14.848-6.656 31.744-9.728 64.512-9.728 97.28 0 268.8 218.624 487.424 487.424 487.424s487.424-218.624 487.424-487.424c0.512-73.216-15.36-142.336-44.032-204.288zM855.04 190.464c17.408-42.496 27.136-87.552 30.208-133.632 28.672 55.808 43.008 117.248 42.496 180.736 0 13.824-1.024 27.136-2.56 40.96-19.968-32.256-43.008-61.44-70.144-88.064z" p-id="5071"></path><path d="M534.016 734.208c-7.168-7.68-19.456-7.68-27.136-0.512s-7.68 19.456-0.512 27.136c38.912 39.936 87.552 61.44 137.728 61.44h9.216c53.248-2.56 102.912-30.208 140.8-77.824 6.656-8.192 5.12-20.48-3.072-26.624-8.192-6.656-20.48-5.12-26.624 3.072-30.72 38.912-70.656 61.44-112.64 63.488-42.496 2.048-83.968-15.872-117.76-50.176z m39.424-248.32c-18.432-15.36-46.592-29.184-78.848-46.08-7.68-4.096-15.872-8.192-23.552-12.288-12.288-6.144-21.504-11.776-31.744-17.92-12.288-7.168-25.6-14.848-44.032-24.576-9.216-4.608-20.992-1.024-25.6 8.192-4.608 9.216-1.024 20.992 8.192 25.6 17.408 8.704 29.696 16.384 41.984 23.04 10.24 6.144 20.48 12.288 33.792 18.944 3.072 1.536 6.144 3.072 8.704 4.608-6.656 6.144-12.288 13.824-16.384 23.04-9.728 20.992-9.728 45.056-1.024 65.024 12.288 27.136 38.912 43.008 67.072 43.008 10.752 0 20.992-2.048 30.72-6.656 36.864-16.896 53.248-60.416 36.352-97.28-1.536-2.048-3.072-4.608-5.632-6.656z m-46.592 70.144c-17.92 8.192-38.912 0.512-47.104-17.408-4.608-9.728-4.096-22.528 1.024-33.28 3.072-6.656 8.704-14.848 19.968-17.92 0.512 0 1.024 0 1.024-0.512 17.92 9.216 32.768 17.92 44.032 26.112 5.12 16.384-2.56 35.328-18.944 43.008z m398.336-147.968c9.216-5.12 12.288-16.896 6.656-26.112-5.12-9.216-16.896-12.288-26.112-6.656l-6.144 3.584c-39.424 23.04-42.496 25.088-90.624 48.128-32.256 15.36-58.368 30.72-78.848 45.568-2.56 2.048-4.608 4.608-6.144 7.168-8.192 17.92-8.704 37.888-2.048 56.32 6.656 18.432 20.48 33.28 38.4 41.472 9.728 4.608 19.968 6.656 30.72 6.656 8.704 0 17.408-1.536 25.6-4.608 18.432-6.656 33.28-20.48 41.472-38.4 8.704-19.456 9.728-41.984 2.048-61.952-3.584-9.728-9.728-18.944-16.896-26.112 33.792-16.384 41.472-20.992 75.776-40.96l6.144-4.096z m-101.376 117.248c-4.096 8.704-11.264 15.36-19.968 18.432-8.704 3.072-18.432 3.072-27.136-1.024-8.704-4.096-15.36-11.264-18.432-19.968-2.56-7.168-3.072-15.36-0.512-23.04 12.8-9.216 28.672-18.432 47.104-28.16 11.776 5.632 17.408 14.336 19.968 20.992 4.096 10.752 3.584 23.04-1.024 32.768zM51.712 376.832c0 10.752 8.704 18.944 18.944 18.944s18.944-8.704 18.944-18.944c0-10.752-8.704-18.944-18.944-18.944s-18.944 8.192-18.944 18.944z" p-id="5072"></path></svg>